<mxfile host="app.diagrams.net" agent="Mozilla/5.0 (Windows NT 10.0; Win64; x64) AppleWebKit/537.36 (KHTML, like Gecko) Chrome/132.0.0.0 YaBrowser/25.2.0.0 Safari/537.36" version="26.2.9">
  <diagram name="Страница — 1" id="dQLQIZRQ8VQJ751k3kgv">
    <mxGraphModel dx="2333" dy="1125" grid="1" gridSize="10" guides="1" tooltips="1" connect="1" arrows="1" fold="1" page="1" pageScale="1" pageWidth="827" pageHeight="1169" math="0" shadow="0">
      <root>
        <mxCell id="0" />
        <mxCell id="1" parent="0" />
        <mxCell id="ZsvnVr6YWIfDcL98dtE6-73" style="edgeStyle=orthogonalEdgeStyle;rounded=0;orthogonalLoop=1;jettySize=auto;html=1;entryX=0;entryY=0.5;entryDx=0;entryDy=0;" edge="1" parent="1" source="ZsvnVr6YWIfDcL98dtE6-1" target="ZsvnVr6YWIfDcL98dtE6-39">
          <mxGeometry relative="1" as="geometry" />
        </mxCell>
        <mxCell id="ZsvnVr6YWIfDcL98dtE6-75" value="1" style="edgeLabel;html=1;align=center;verticalAlign=middle;resizable=0;points=[];" vertex="1" connectable="0" parent="ZsvnVr6YWIfDcL98dtE6-73">
          <mxGeometry x="-0.6993" y="1" relative="1" as="geometry">
            <mxPoint as="offset" />
          </mxGeometry>
        </mxCell>
        <mxCell id="ZsvnVr6YWIfDcL98dtE6-102" style="edgeStyle=orthogonalEdgeStyle;rounded=0;orthogonalLoop=1;jettySize=auto;html=1;entryX=0;entryY=0.5;entryDx=0;entryDy=0;" edge="1" parent="1" source="ZsvnVr6YWIfDcL98dtE6-1" target="ZsvnVr6YWIfDcL98dtE6-101">
          <mxGeometry relative="1" as="geometry" />
        </mxCell>
        <mxCell id="ZsvnVr6YWIfDcL98dtE6-104" value="1" style="edgeLabel;html=1;align=center;verticalAlign=middle;resizable=0;points=[];" vertex="1" connectable="0" parent="ZsvnVr6YWIfDcL98dtE6-102">
          <mxGeometry x="0.7333" y="-1" relative="1" as="geometry">
            <mxPoint as="offset" />
          </mxGeometry>
        </mxCell>
        <mxCell id="ZsvnVr6YWIfDcL98dtE6-1" value="Группа" style="whiteSpace=wrap;html=1;align=center;" vertex="1" parent="1">
          <mxGeometry x="180" y="110" width="100" height="40" as="geometry" />
        </mxCell>
        <mxCell id="ZsvnVr6YWIfDcL98dtE6-41" style="edgeStyle=orthogonalEdgeStyle;rounded=0;orthogonalLoop=1;jettySize=auto;html=1;entryX=0;entryY=0.5;entryDx=0;entryDy=0;" edge="1" parent="1" source="ZsvnVr6YWIfDcL98dtE6-2" target="ZsvnVr6YWIfDcL98dtE6-1">
          <mxGeometry relative="1" as="geometry">
            <Array as="points">
              <mxPoint x="160" y="55" />
              <mxPoint x="160" y="130" />
            </Array>
          </mxGeometry>
        </mxCell>
        <mxCell id="ZsvnVr6YWIfDcL98dtE6-2" value="Код группы" style="ellipse;whiteSpace=wrap;html=1;align=center;fontStyle=4;" vertex="1" parent="1">
          <mxGeometry x="50" y="35" width="100" height="40" as="geometry" />
        </mxCell>
        <mxCell id="ZsvnVr6YWIfDcL98dtE6-42" style="edgeStyle=orthogonalEdgeStyle;rounded=0;orthogonalLoop=1;jettySize=auto;html=1;entryX=0;entryY=0.5;entryDx=0;entryDy=0;" edge="1" parent="1" source="ZsvnVr6YWIfDcL98dtE6-3" target="ZsvnVr6YWIfDcL98dtE6-1">
          <mxGeometry relative="1" as="geometry">
            <Array as="points">
              <mxPoint x="160" y="105" />
              <mxPoint x="160" y="130" />
            </Array>
          </mxGeometry>
        </mxCell>
        <mxCell id="ZsvnVr6YWIfDcL98dtE6-3" value="Направление подготовки" style="ellipse;whiteSpace=wrap;html=1;align=center;" vertex="1" parent="1">
          <mxGeometry x="50" y="85" width="100" height="40" as="geometry" />
        </mxCell>
        <mxCell id="ZsvnVr6YWIfDcL98dtE6-44" style="edgeStyle=orthogonalEdgeStyle;rounded=0;orthogonalLoop=1;jettySize=auto;html=1;entryX=0;entryY=0.5;entryDx=0;entryDy=0;" edge="1" parent="1" source="ZsvnVr6YWIfDcL98dtE6-4" target="ZsvnVr6YWIfDcL98dtE6-1">
          <mxGeometry relative="1" as="geometry">
            <Array as="points">
              <mxPoint x="160" y="205" />
              <mxPoint x="160" y="130" />
            </Array>
          </mxGeometry>
        </mxCell>
        <mxCell id="ZsvnVr6YWIfDcL98dtE6-4" value="Курс" style="ellipse;whiteSpace=wrap;html=1;align=center;" vertex="1" parent="1">
          <mxGeometry x="50" y="185" width="100" height="40" as="geometry" />
        </mxCell>
        <mxCell id="ZsvnVr6YWIfDcL98dtE6-43" style="edgeStyle=orthogonalEdgeStyle;rounded=0;orthogonalLoop=1;jettySize=auto;html=1;entryX=0;entryY=0.5;entryDx=0;entryDy=0;" edge="1" parent="1" source="ZsvnVr6YWIfDcL98dtE6-5" target="ZsvnVr6YWIfDcL98dtE6-1">
          <mxGeometry relative="1" as="geometry">
            <Array as="points">
              <mxPoint x="160" y="155" />
              <mxPoint x="160" y="130" />
            </Array>
          </mxGeometry>
        </mxCell>
        <mxCell id="ZsvnVr6YWIfDcL98dtE6-5" value="Профиль" style="ellipse;whiteSpace=wrap;html=1;align=center;" vertex="1" parent="1">
          <mxGeometry x="50" y="135" width="100" height="40" as="geometry" />
        </mxCell>
        <mxCell id="ZsvnVr6YWIfDcL98dtE6-96" style="edgeStyle=orthogonalEdgeStyle;rounded=0;orthogonalLoop=1;jettySize=auto;html=1;entryX=1;entryY=0.5;entryDx=0;entryDy=0;" edge="1" parent="1" source="ZsvnVr6YWIfDcL98dtE6-6" target="ZsvnVr6YWIfDcL98dtE6-95">
          <mxGeometry relative="1" as="geometry">
            <mxPoint x="610" y="310" as="targetPoint" />
            <Array as="points">
              <mxPoint x="610" y="300" />
            </Array>
          </mxGeometry>
        </mxCell>
        <mxCell id="ZsvnVr6YWIfDcL98dtE6-99" value="1" style="edgeLabel;html=1;align=center;verticalAlign=middle;resizable=0;points=[];" vertex="1" connectable="0" parent="ZsvnVr6YWIfDcL98dtE6-96">
          <mxGeometry x="0.5965" relative="1" as="geometry">
            <mxPoint as="offset" />
          </mxGeometry>
        </mxCell>
        <mxCell id="ZsvnVr6YWIfDcL98dtE6-6" value="Студент" style="whiteSpace=wrap;html=1;align=center;" vertex="1" parent="1">
          <mxGeometry x="560" y="160" width="100" height="40" as="geometry" />
        </mxCell>
        <mxCell id="ZsvnVr6YWIfDcL98dtE6-45" style="edgeStyle=orthogonalEdgeStyle;rounded=0;orthogonalLoop=1;jettySize=auto;html=1;entryX=1;entryY=0.5;entryDx=0;entryDy=0;" edge="1" parent="1" source="ZsvnVr6YWIfDcL98dtE6-7" target="ZsvnVr6YWIfDcL98dtE6-6">
          <mxGeometry relative="1" as="geometry">
            <Array as="points">
              <mxPoint x="680" y="80" />
              <mxPoint x="680" y="180" />
            </Array>
          </mxGeometry>
        </mxCell>
        <mxCell id="ZsvnVr6YWIfDcL98dtE6-7" value="Номер зачетной книжки" style="ellipse;whiteSpace=wrap;html=1;align=center;fontStyle=4;" vertex="1" parent="1">
          <mxGeometry x="690" y="60" width="100" height="40" as="geometry" />
        </mxCell>
        <mxCell id="ZsvnVr6YWIfDcL98dtE6-49" style="edgeStyle=orthogonalEdgeStyle;rounded=0;orthogonalLoop=1;jettySize=auto;html=1;entryX=1;entryY=0.5;entryDx=0;entryDy=0;" edge="1" parent="1" source="ZsvnVr6YWIfDcL98dtE6-8" target="ZsvnVr6YWIfDcL98dtE6-6">
          <mxGeometry relative="1" as="geometry">
            <Array as="points">
              <mxPoint x="680" y="280" />
              <mxPoint x="680" y="180" />
            </Array>
          </mxGeometry>
        </mxCell>
        <mxCell id="ZsvnVr6YWIfDcL98dtE6-8" value="Код группы" style="ellipse;whiteSpace=wrap;html=1;align=center;" vertex="1" parent="1">
          <mxGeometry x="690" y="260" width="100" height="40" as="geometry" />
        </mxCell>
        <mxCell id="ZsvnVr6YWIfDcL98dtE6-48" style="edgeStyle=orthogonalEdgeStyle;rounded=0;orthogonalLoop=1;jettySize=auto;html=1;entryX=1;entryY=0.5;entryDx=0;entryDy=0;" edge="1" parent="1" source="ZsvnVr6YWIfDcL98dtE6-9" target="ZsvnVr6YWIfDcL98dtE6-6">
          <mxGeometry relative="1" as="geometry">
            <Array as="points">
              <mxPoint x="680" y="230" />
              <mxPoint x="680" y="180" />
            </Array>
          </mxGeometry>
        </mxCell>
        <mxCell id="ZsvnVr6YWIfDcL98dtE6-9" value="Проживает в общежитии" style="ellipse;whiteSpace=wrap;html=1;align=center;" vertex="1" parent="1">
          <mxGeometry x="690" y="210" width="100" height="40" as="geometry" />
        </mxCell>
        <mxCell id="ZsvnVr6YWIfDcL98dtE6-47" style="edgeStyle=orthogonalEdgeStyle;rounded=0;orthogonalLoop=1;jettySize=auto;html=1;entryX=1;entryY=0.5;entryDx=0;entryDy=0;" edge="1" parent="1" source="ZsvnVr6YWIfDcL98dtE6-10" target="ZsvnVr6YWIfDcL98dtE6-6">
          <mxGeometry relative="1" as="geometry" />
        </mxCell>
        <mxCell id="ZsvnVr6YWIfDcL98dtE6-10" value="Имя" style="ellipse;whiteSpace=wrap;html=1;align=center;" vertex="1" parent="1">
          <mxGeometry x="690" y="160" width="100" height="40" as="geometry" />
        </mxCell>
        <mxCell id="ZsvnVr6YWIfDcL98dtE6-46" style="edgeStyle=orthogonalEdgeStyle;rounded=0;orthogonalLoop=1;jettySize=auto;html=1;entryX=1;entryY=0.5;entryDx=0;entryDy=0;" edge="1" parent="1" source="ZsvnVr6YWIfDcL98dtE6-11" target="ZsvnVr6YWIfDcL98dtE6-6">
          <mxGeometry relative="1" as="geometry">
            <Array as="points">
              <mxPoint x="680" y="130" />
              <mxPoint x="680" y="180" />
            </Array>
          </mxGeometry>
        </mxCell>
        <mxCell id="ZsvnVr6YWIfDcL98dtE6-11" value="Фамилия" style="ellipse;whiteSpace=wrap;html=1;align=center;" vertex="1" parent="1">
          <mxGeometry x="690" y="110" width="100" height="40" as="geometry" />
        </mxCell>
        <mxCell id="ZsvnVr6YWIfDcL98dtE6-79" style="edgeStyle=orthogonalEdgeStyle;rounded=0;orthogonalLoop=1;jettySize=auto;html=1;entryX=0;entryY=0.5;entryDx=0;entryDy=0;" edge="1" parent="1" source="ZsvnVr6YWIfDcL98dtE6-12" target="ZsvnVr6YWIfDcL98dtE6-78">
          <mxGeometry relative="1" as="geometry" />
        </mxCell>
        <mxCell id="ZsvnVr6YWIfDcL98dtE6-86" value="М" style="edgeLabel;html=1;align=center;verticalAlign=middle;resizable=0;points=[];" vertex="1" connectable="0" parent="ZsvnVr6YWIfDcL98dtE6-79">
          <mxGeometry x="0.5179" relative="1" as="geometry">
            <mxPoint as="offset" />
          </mxGeometry>
        </mxCell>
        <mxCell id="ZsvnVr6YWIfDcL98dtE6-85" style="edgeStyle=orthogonalEdgeStyle;rounded=0;orthogonalLoop=1;jettySize=auto;html=1;entryX=0;entryY=0.5;entryDx=0;entryDy=0;" edge="1" parent="1" source="ZsvnVr6YWIfDcL98dtE6-12" target="ZsvnVr6YWIfDcL98dtE6-84">
          <mxGeometry relative="1" as="geometry" />
        </mxCell>
        <mxCell id="ZsvnVr6YWIfDcL98dtE6-87" value="М" style="edgeLabel;html=1;align=center;verticalAlign=middle;resizable=0;points=[];" vertex="1" connectable="0" parent="ZsvnVr6YWIfDcL98dtE6-85">
          <mxGeometry x="0.7212" y="1" relative="1" as="geometry">
            <mxPoint as="offset" />
          </mxGeometry>
        </mxCell>
        <mxCell id="ZsvnVr6YWIfDcL98dtE6-91" style="edgeStyle=orthogonalEdgeStyle;rounded=0;orthogonalLoop=1;jettySize=auto;html=1;entryX=0.5;entryY=0;entryDx=0;entryDy=0;" edge="1" parent="1" source="ZsvnVr6YWIfDcL98dtE6-12" target="ZsvnVr6YWIfDcL98dtE6-90">
          <mxGeometry relative="1" as="geometry" />
        </mxCell>
        <mxCell id="ZsvnVr6YWIfDcL98dtE6-93" value="М" style="edgeLabel;html=1;align=center;verticalAlign=middle;resizable=0;points=[];" vertex="1" connectable="0" parent="ZsvnVr6YWIfDcL98dtE6-91">
          <mxGeometry x="0.6077" y="1" relative="1" as="geometry">
            <mxPoint as="offset" />
          </mxGeometry>
        </mxCell>
        <mxCell id="ZsvnVr6YWIfDcL98dtE6-12" value="Преподаватель" style="whiteSpace=wrap;html=1;align=center;" vertex="1" parent="1">
          <mxGeometry x="180" y="490" width="100" height="40" as="geometry" />
        </mxCell>
        <mxCell id="ZsvnVr6YWIfDcL98dtE6-67" style="edgeStyle=orthogonalEdgeStyle;rounded=0;orthogonalLoop=1;jettySize=auto;html=1;entryX=0;entryY=0.5;entryDx=0;entryDy=0;" edge="1" parent="1" source="ZsvnVr6YWIfDcL98dtE6-13" target="ZsvnVr6YWIfDcL98dtE6-12">
          <mxGeometry relative="1" as="geometry">
            <Array as="points">
              <mxPoint x="160" y="390" />
              <mxPoint x="160" y="510" />
            </Array>
          </mxGeometry>
        </mxCell>
        <mxCell id="ZsvnVr6YWIfDcL98dtE6-13" value="Код преподавателя" style="ellipse;whiteSpace=wrap;html=1;align=center;fontStyle=4;" vertex="1" parent="1">
          <mxGeometry x="50" y="370" width="100" height="40" as="geometry" />
        </mxCell>
        <mxCell id="ZsvnVr6YWIfDcL98dtE6-68" style="edgeStyle=orthogonalEdgeStyle;rounded=0;orthogonalLoop=1;jettySize=auto;html=1;entryX=0;entryY=0.5;entryDx=0;entryDy=0;" edge="1" parent="1" source="ZsvnVr6YWIfDcL98dtE6-14" target="ZsvnVr6YWIfDcL98dtE6-12">
          <mxGeometry relative="1" as="geometry">
            <Array as="points">
              <mxPoint x="160" y="440" />
              <mxPoint x="160" y="510" />
            </Array>
          </mxGeometry>
        </mxCell>
        <mxCell id="ZsvnVr6YWIfDcL98dtE6-14" value="Фамилия" style="ellipse;whiteSpace=wrap;html=1;align=center;" vertex="1" parent="1">
          <mxGeometry x="50" y="420" width="100" height="40" as="geometry" />
        </mxCell>
        <mxCell id="ZsvnVr6YWIfDcL98dtE6-72" style="edgeStyle=orthogonalEdgeStyle;rounded=0;orthogonalLoop=1;jettySize=auto;html=1;entryX=0;entryY=0.5;entryDx=0;entryDy=0;" edge="1" parent="1" source="ZsvnVr6YWIfDcL98dtE6-15" target="ZsvnVr6YWIfDcL98dtE6-12">
          <mxGeometry relative="1" as="geometry">
            <Array as="points">
              <mxPoint x="160" y="645" />
              <mxPoint x="160" y="510" />
            </Array>
          </mxGeometry>
        </mxCell>
        <mxCell id="ZsvnVr6YWIfDcL98dtE6-15" value="Дата принятия на работу" style="ellipse;whiteSpace=wrap;html=1;align=center;" vertex="1" parent="1">
          <mxGeometry x="50" y="625" width="100" height="40" as="geometry" />
        </mxCell>
        <mxCell id="ZsvnVr6YWIfDcL98dtE6-71" style="edgeStyle=orthogonalEdgeStyle;rounded=0;orthogonalLoop=1;jettySize=auto;html=1;entryX=0;entryY=0.5;entryDx=0;entryDy=0;" edge="1" parent="1" source="ZsvnVr6YWIfDcL98dtE6-16" target="ZsvnVr6YWIfDcL98dtE6-12">
          <mxGeometry relative="1" as="geometry">
            <Array as="points">
              <mxPoint x="160" y="590" />
              <mxPoint x="160" y="510" />
            </Array>
          </mxGeometry>
        </mxCell>
        <mxCell id="ZsvnVr6YWIfDcL98dtE6-16" value="Должность" style="ellipse;whiteSpace=wrap;html=1;align=center;" vertex="1" parent="1">
          <mxGeometry x="50" y="570" width="100" height="40" as="geometry" />
        </mxCell>
        <mxCell id="ZsvnVr6YWIfDcL98dtE6-70" style="edgeStyle=orthogonalEdgeStyle;rounded=0;orthogonalLoop=1;jettySize=auto;html=1;entryX=0;entryY=0.5;entryDx=0;entryDy=0;exitX=1;exitY=0.5;exitDx=0;exitDy=0;" edge="1" parent="1" source="ZsvnVr6YWIfDcL98dtE6-17" target="ZsvnVr6YWIfDcL98dtE6-12">
          <mxGeometry relative="1" as="geometry">
            <Array as="points">
              <mxPoint x="160" y="540" />
              <mxPoint x="160" y="510" />
            </Array>
          </mxGeometry>
        </mxCell>
        <mxCell id="ZsvnVr6YWIfDcL98dtE6-17" value="Кафедра" style="ellipse;whiteSpace=wrap;html=1;align=center;" vertex="1" parent="1">
          <mxGeometry x="50" y="520" width="100" height="40" as="geometry" />
        </mxCell>
        <mxCell id="ZsvnVr6YWIfDcL98dtE6-69" style="edgeStyle=orthogonalEdgeStyle;rounded=0;orthogonalLoop=1;jettySize=auto;html=1;entryX=0;entryY=0.5;entryDx=0;entryDy=0;exitX=1;exitY=0.5;exitDx=0;exitDy=0;" edge="1" parent="1" source="ZsvnVr6YWIfDcL98dtE6-18" target="ZsvnVr6YWIfDcL98dtE6-12">
          <mxGeometry relative="1" as="geometry">
            <Array as="points">
              <mxPoint x="160" y="490" />
              <mxPoint x="160" y="510" />
            </Array>
          </mxGeometry>
        </mxCell>
        <mxCell id="ZsvnVr6YWIfDcL98dtE6-18" value="Имя" style="ellipse;whiteSpace=wrap;html=1;align=center;" vertex="1" parent="1">
          <mxGeometry x="50" y="470" width="100" height="40" as="geometry" />
        </mxCell>
        <mxCell id="ZsvnVr6YWIfDcL98dtE6-19" value="Дисциплина" style="whiteSpace=wrap;html=1;align=center;" vertex="1" parent="1">
          <mxGeometry x="560" y="530" width="100" height="40" as="geometry" />
        </mxCell>
        <mxCell id="ZsvnVr6YWIfDcL98dtE6-50" style="edgeStyle=orthogonalEdgeStyle;rounded=0;orthogonalLoop=1;jettySize=auto;html=1;entryX=1;entryY=0.5;entryDx=0;entryDy=0;" edge="1" parent="1" source="ZsvnVr6YWIfDcL98dtE6-20" target="ZsvnVr6YWIfDcL98dtE6-19">
          <mxGeometry relative="1" as="geometry">
            <Array as="points">
              <mxPoint x="680" y="400" />
              <mxPoint x="680" y="550" />
            </Array>
          </mxGeometry>
        </mxCell>
        <mxCell id="ZsvnVr6YWIfDcL98dtE6-20" value="Код дисциплины" style="ellipse;whiteSpace=wrap;html=1;align=center;fontStyle=4;" vertex="1" parent="1">
          <mxGeometry x="690" y="380" width="100" height="40" as="geometry" />
        </mxCell>
        <mxCell id="ZsvnVr6YWIfDcL98dtE6-51" style="edgeStyle=orthogonalEdgeStyle;rounded=0;orthogonalLoop=1;jettySize=auto;html=1;entryX=1;entryY=0.5;entryDx=0;entryDy=0;" edge="1" parent="1" source="ZsvnVr6YWIfDcL98dtE6-21" target="ZsvnVr6YWIfDcL98dtE6-19">
          <mxGeometry relative="1" as="geometry">
            <Array as="points">
              <mxPoint x="680" y="450" />
              <mxPoint x="680" y="550" />
            </Array>
          </mxGeometry>
        </mxCell>
        <mxCell id="ZsvnVr6YWIfDcL98dtE6-21" value="Название" style="ellipse;whiteSpace=wrap;html=1;align=center;" vertex="1" parent="1">
          <mxGeometry x="690" y="430" width="100" height="40" as="geometry" />
        </mxCell>
        <mxCell id="ZsvnVr6YWIfDcL98dtE6-52" style="edgeStyle=orthogonalEdgeStyle;rounded=0;orthogonalLoop=1;jettySize=auto;html=1;entryX=1;entryY=0.5;entryDx=0;entryDy=0;" edge="1" parent="1" source="ZsvnVr6YWIfDcL98dtE6-22" target="ZsvnVr6YWIfDcL98dtE6-19">
          <mxGeometry relative="1" as="geometry">
            <Array as="points">
              <mxPoint x="680" y="500" />
              <mxPoint x="680" y="550" />
            </Array>
          </mxGeometry>
        </mxCell>
        <mxCell id="ZsvnVr6YWIfDcL98dtE6-22" value="Кол-во лекционных часов" style="ellipse;whiteSpace=wrap;html=1;align=center;" vertex="1" parent="1">
          <mxGeometry x="690" y="480" width="100" height="40" as="geometry" />
        </mxCell>
        <mxCell id="ZsvnVr6YWIfDcL98dtE6-53" style="edgeStyle=orthogonalEdgeStyle;rounded=0;orthogonalLoop=1;jettySize=auto;html=1;" edge="1" parent="1" source="ZsvnVr6YWIfDcL98dtE6-23">
          <mxGeometry relative="1" as="geometry">
            <mxPoint x="660" y="550" as="targetPoint" />
          </mxGeometry>
        </mxCell>
        <mxCell id="ZsvnVr6YWIfDcL98dtE6-23" value="Кол-во лабораторных работ" style="ellipse;whiteSpace=wrap;html=1;align=center;" vertex="1" parent="1">
          <mxGeometry x="690" y="530" width="100" height="40" as="geometry" />
        </mxCell>
        <mxCell id="ZsvnVr6YWIfDcL98dtE6-54" style="edgeStyle=orthogonalEdgeStyle;rounded=0;orthogonalLoop=1;jettySize=auto;html=1;entryX=1;entryY=0.5;entryDx=0;entryDy=0;" edge="1" parent="1" source="ZsvnVr6YWIfDcL98dtE6-24" target="ZsvnVr6YWIfDcL98dtE6-19">
          <mxGeometry relative="1" as="geometry">
            <Array as="points">
              <mxPoint x="680" y="600" />
              <mxPoint x="680" y="550" />
            </Array>
          </mxGeometry>
        </mxCell>
        <mxCell id="ZsvnVr6YWIfDcL98dtE6-24" value="Общий объем часов" style="ellipse;whiteSpace=wrap;html=1;align=center;" vertex="1" parent="1">
          <mxGeometry x="690" y="580" width="100" height="40" as="geometry" />
        </mxCell>
        <mxCell id="ZsvnVr6YWIfDcL98dtE6-55" style="edgeStyle=orthogonalEdgeStyle;rounded=0;orthogonalLoop=1;jettySize=auto;html=1;entryX=1;entryY=0.5;entryDx=0;entryDy=0;" edge="1" parent="1" source="ZsvnVr6YWIfDcL98dtE6-25" target="ZsvnVr6YWIfDcL98dtE6-19">
          <mxGeometry relative="1" as="geometry">
            <Array as="points">
              <mxPoint x="680" y="650" />
              <mxPoint x="680" y="550" />
            </Array>
          </mxGeometry>
        </mxCell>
        <mxCell id="ZsvnVr6YWIfDcL98dtE6-25" value="Семестр изучения" style="ellipse;whiteSpace=wrap;html=1;align=center;" vertex="1" parent="1">
          <mxGeometry x="690" y="630" width="100" height="40" as="geometry" />
        </mxCell>
        <mxCell id="ZsvnVr6YWIfDcL98dtE6-56" style="edgeStyle=orthogonalEdgeStyle;rounded=0;orthogonalLoop=1;jettySize=auto;html=1;entryX=1;entryY=0.5;entryDx=0;entryDy=0;" edge="1" parent="1" source="ZsvnVr6YWIfDcL98dtE6-26" target="ZsvnVr6YWIfDcL98dtE6-19">
          <mxGeometry relative="1" as="geometry">
            <Array as="points">
              <mxPoint x="680" y="695" />
              <mxPoint x="680" y="550" />
            </Array>
          </mxGeometry>
        </mxCell>
        <mxCell id="ZsvnVr6YWIfDcL98dtE6-26" value="Форма контроля" style="ellipse;whiteSpace=wrap;html=1;align=center;" vertex="1" parent="1">
          <mxGeometry x="690" y="675" width="100" height="40" as="geometry" />
        </mxCell>
        <mxCell id="ZsvnVr6YWIfDcL98dtE6-27" value="Занятие" style="whiteSpace=wrap;html=1;align=center;" vertex="1" parent="1">
          <mxGeometry x="180" y="870" width="100" height="40" as="geometry" />
        </mxCell>
        <mxCell id="ZsvnVr6YWIfDcL98dtE6-28" value="Вид занятия" style="ellipse;whiteSpace=wrap;html=1;align=center;fontStyle=4;" vertex="1" parent="1">
          <mxGeometry x="50" y="870" width="100" height="40" as="geometry" />
        </mxCell>
        <mxCell id="ZsvnVr6YWIfDcL98dtE6-63" style="edgeStyle=orthogonalEdgeStyle;rounded=0;orthogonalLoop=1;jettySize=auto;html=1;entryX=0;entryY=0.5;entryDx=0;entryDy=0;" edge="1" parent="1" source="ZsvnVr6YWIfDcL98dtE6-29" target="ZsvnVr6YWIfDcL98dtE6-27">
          <mxGeometry relative="1" as="geometry">
            <Array as="points">
              <mxPoint x="160" y="840" />
              <mxPoint x="160" y="890" />
            </Array>
          </mxGeometry>
        </mxCell>
        <mxCell id="ZsvnVr6YWIfDcL98dtE6-29" value="Дисциплина" style="ellipse;whiteSpace=wrap;html=1;align=center;fontStyle=4;" vertex="1" parent="1">
          <mxGeometry x="50" y="820" width="100" height="40" as="geometry" />
        </mxCell>
        <mxCell id="ZsvnVr6YWIfDcL98dtE6-62" style="edgeStyle=orthogonalEdgeStyle;rounded=0;orthogonalLoop=1;jettySize=auto;html=1;entryX=0;entryY=0.5;entryDx=0;entryDy=0;" edge="1" parent="1" source="ZsvnVr6YWIfDcL98dtE6-30" target="ZsvnVr6YWIfDcL98dtE6-27">
          <mxGeometry relative="1" as="geometry">
            <Array as="points">
              <mxPoint x="160" y="790" />
              <mxPoint x="160" y="890" />
            </Array>
          </mxGeometry>
        </mxCell>
        <mxCell id="ZsvnVr6YWIfDcL98dtE6-30" value="Группа" style="ellipse;whiteSpace=wrap;html=1;align=center;fontStyle=4;" vertex="1" parent="1">
          <mxGeometry x="50" y="770" width="100" height="40" as="geometry" />
        </mxCell>
        <mxCell id="ZsvnVr6YWIfDcL98dtE6-65" style="edgeStyle=orthogonalEdgeStyle;rounded=0;orthogonalLoop=1;jettySize=auto;html=1;entryX=0;entryY=0.5;entryDx=0;entryDy=0;" edge="1" parent="1" source="ZsvnVr6YWIfDcL98dtE6-31" target="ZsvnVr6YWIfDcL98dtE6-27">
          <mxGeometry relative="1" as="geometry">
            <Array as="points">
              <mxPoint x="160" y="940" />
              <mxPoint x="160" y="890" />
            </Array>
          </mxGeometry>
        </mxCell>
        <mxCell id="ZsvnVr6YWIfDcL98dtE6-31" value="Аудитория" style="ellipse;whiteSpace=wrap;html=1;align=center;" vertex="1" parent="1">
          <mxGeometry x="50" y="920" width="100" height="40" as="geometry" />
        </mxCell>
        <mxCell id="ZsvnVr6YWIfDcL98dtE6-66" style="edgeStyle=orthogonalEdgeStyle;rounded=0;orthogonalLoop=1;jettySize=auto;html=1;entryX=0;entryY=0.5;entryDx=0;entryDy=0;" edge="1" parent="1" source="ZsvnVr6YWIfDcL98dtE6-32" target="ZsvnVr6YWIfDcL98dtE6-27">
          <mxGeometry relative="1" as="geometry">
            <Array as="points">
              <mxPoint x="160" y="990" />
              <mxPoint x="160" y="890" />
            </Array>
          </mxGeometry>
        </mxCell>
        <mxCell id="ZsvnVr6YWIfDcL98dtE6-32" value="Преподаватель" style="ellipse;whiteSpace=wrap;html=1;align=center;" vertex="1" parent="1">
          <mxGeometry x="50" y="970" width="100" height="40" as="geometry" />
        </mxCell>
        <mxCell id="ZsvnVr6YWIfDcL98dtE6-33" value="Успеваемость" style="whiteSpace=wrap;html=1;align=center;" vertex="1" parent="1">
          <mxGeometry x="550" y="910" width="100" height="40" as="geometry" />
        </mxCell>
        <mxCell id="ZsvnVr6YWIfDcL98dtE6-57" style="edgeStyle=orthogonalEdgeStyle;rounded=0;orthogonalLoop=1;jettySize=auto;html=1;entryX=1;entryY=0.5;entryDx=0;entryDy=0;" edge="1" parent="1" source="ZsvnVr6YWIfDcL98dtE6-34" target="ZsvnVr6YWIfDcL98dtE6-33">
          <mxGeometry relative="1" as="geometry">
            <Array as="points">
              <mxPoint x="670" y="830" />
              <mxPoint x="670" y="930" />
            </Array>
          </mxGeometry>
        </mxCell>
        <mxCell id="ZsvnVr6YWIfDcL98dtE6-34" value="Номер зачетки" style="ellipse;whiteSpace=wrap;html=1;align=center;fontStyle=4;" vertex="1" parent="1">
          <mxGeometry x="680" y="810" width="100" height="40" as="geometry" />
        </mxCell>
        <mxCell id="ZsvnVr6YWIfDcL98dtE6-58" style="edgeStyle=orthogonalEdgeStyle;rounded=0;orthogonalLoop=1;jettySize=auto;html=1;entryX=1;entryY=0.5;entryDx=0;entryDy=0;" edge="1" parent="1" source="ZsvnVr6YWIfDcL98dtE6-35" target="ZsvnVr6YWIfDcL98dtE6-33">
          <mxGeometry relative="1" as="geometry">
            <Array as="points">
              <mxPoint x="670" y="880" />
              <mxPoint x="670" y="930" />
            </Array>
          </mxGeometry>
        </mxCell>
        <mxCell id="ZsvnVr6YWIfDcL98dtE6-35" value="Дата" style="ellipse;whiteSpace=wrap;html=1;align=center;fontStyle=4;" vertex="1" parent="1">
          <mxGeometry x="680" y="860" width="100" height="40" as="geometry" />
        </mxCell>
        <mxCell id="ZsvnVr6YWIfDcL98dtE6-59" style="edgeStyle=orthogonalEdgeStyle;rounded=0;orthogonalLoop=1;jettySize=auto;html=1;entryX=1;entryY=0.5;entryDx=0;entryDy=0;" edge="1" parent="1" source="ZsvnVr6YWIfDcL98dtE6-36" target="ZsvnVr6YWIfDcL98dtE6-33">
          <mxGeometry relative="1" as="geometry" />
        </mxCell>
        <mxCell id="ZsvnVr6YWIfDcL98dtE6-36" value="Дисциплина" style="ellipse;whiteSpace=wrap;html=1;align=center;fontStyle=4;" vertex="1" parent="1">
          <mxGeometry x="680" y="910" width="100" height="40" as="geometry" />
        </mxCell>
        <mxCell id="ZsvnVr6YWIfDcL98dtE6-60" style="edgeStyle=orthogonalEdgeStyle;rounded=0;orthogonalLoop=1;jettySize=auto;html=1;entryX=1;entryY=0.5;entryDx=0;entryDy=0;" edge="1" parent="1" source="ZsvnVr6YWIfDcL98dtE6-37" target="ZsvnVr6YWIfDcL98dtE6-33">
          <mxGeometry relative="1" as="geometry">
            <Array as="points">
              <mxPoint x="670" y="980" />
              <mxPoint x="670" y="930" />
            </Array>
          </mxGeometry>
        </mxCell>
        <mxCell id="ZsvnVr6YWIfDcL98dtE6-37" value="Преподаватель" style="ellipse;whiteSpace=wrap;html=1;align=center;" vertex="1" parent="1">
          <mxGeometry x="680" y="960" width="100" height="40" as="geometry" />
        </mxCell>
        <mxCell id="ZsvnVr6YWIfDcL98dtE6-61" style="edgeStyle=orthogonalEdgeStyle;rounded=0;orthogonalLoop=1;jettySize=auto;html=1;entryX=1;entryY=0.5;entryDx=0;entryDy=0;" edge="1" parent="1" source="ZsvnVr6YWIfDcL98dtE6-38" target="ZsvnVr6YWIfDcL98dtE6-33">
          <mxGeometry relative="1" as="geometry">
            <Array as="points">
              <mxPoint x="670" y="1030" />
              <mxPoint x="670" y="930" />
            </Array>
          </mxGeometry>
        </mxCell>
        <mxCell id="ZsvnVr6YWIfDcL98dtE6-38" value="Оценка" style="ellipse;whiteSpace=wrap;html=1;align=center;" vertex="1" parent="1">
          <mxGeometry x="680" y="1010" width="100" height="40" as="geometry" />
        </mxCell>
        <mxCell id="ZsvnVr6YWIfDcL98dtE6-74" style="edgeStyle=orthogonalEdgeStyle;rounded=0;orthogonalLoop=1;jettySize=auto;html=1;entryX=0;entryY=0.5;entryDx=0;entryDy=0;" edge="1" parent="1" source="ZsvnVr6YWIfDcL98dtE6-39" target="ZsvnVr6YWIfDcL98dtE6-6">
          <mxGeometry relative="1" as="geometry" />
        </mxCell>
        <mxCell id="ZsvnVr6YWIfDcL98dtE6-76" value="М" style="edgeLabel;html=1;align=center;verticalAlign=middle;resizable=0;points=[];" vertex="1" connectable="0" parent="ZsvnVr6YWIfDcL98dtE6-74">
          <mxGeometry x="0.527" y="2" relative="1" as="geometry">
            <mxPoint as="offset" />
          </mxGeometry>
        </mxCell>
        <mxCell id="ZsvnVr6YWIfDcL98dtE6-39" value="Relationship" style="shape=rhombus;perimeter=rhombusPerimeter;whiteSpace=wrap;html=1;align=center;" vertex="1" parent="1">
          <mxGeometry x="390" y="145" width="70" height="40" as="geometry" />
        </mxCell>
        <mxCell id="ZsvnVr6YWIfDcL98dtE6-64" style="edgeStyle=orthogonalEdgeStyle;rounded=0;orthogonalLoop=1;jettySize=auto;html=1;entryX=0;entryY=0.5;entryDx=0;entryDy=0;entryPerimeter=0;" edge="1" parent="1" source="ZsvnVr6YWIfDcL98dtE6-28" target="ZsvnVr6YWIfDcL98dtE6-27">
          <mxGeometry relative="1" as="geometry" />
        </mxCell>
        <mxCell id="ZsvnVr6YWIfDcL98dtE6-80" style="edgeStyle=orthogonalEdgeStyle;rounded=0;orthogonalLoop=1;jettySize=auto;html=1;entryX=0;entryY=0.5;entryDx=0;entryDy=0;" edge="1" parent="1" source="ZsvnVr6YWIfDcL98dtE6-78" target="ZsvnVr6YWIfDcL98dtE6-19">
          <mxGeometry relative="1" as="geometry" />
        </mxCell>
        <mxCell id="ZsvnVr6YWIfDcL98dtE6-82" value="М" style="edgeLabel;html=1;align=center;verticalAlign=middle;resizable=0;points=[];" vertex="1" connectable="0" parent="ZsvnVr6YWIfDcL98dtE6-80">
          <mxGeometry x="0.53" relative="1" as="geometry">
            <mxPoint as="offset" />
          </mxGeometry>
        </mxCell>
        <mxCell id="ZsvnVr6YWIfDcL98dtE6-78" value="Relationship" style="shape=rhombus;perimeter=rhombusPerimeter;whiteSpace=wrap;html=1;align=center;" vertex="1" parent="1">
          <mxGeometry x="390" y="510" width="70" height="40" as="geometry" />
        </mxCell>
        <mxCell id="ZsvnVr6YWIfDcL98dtE6-88" style="edgeStyle=orthogonalEdgeStyle;rounded=0;orthogonalLoop=1;jettySize=auto;html=1;entryX=0;entryY=0.5;entryDx=0;entryDy=0;" edge="1" parent="1" source="ZsvnVr6YWIfDcL98dtE6-84" target="ZsvnVr6YWIfDcL98dtE6-33">
          <mxGeometry relative="1" as="geometry" />
        </mxCell>
        <mxCell id="ZsvnVr6YWIfDcL98dtE6-89" value="М" style="edgeLabel;html=1;align=center;verticalAlign=middle;resizable=0;points=[];" vertex="1" connectable="0" parent="ZsvnVr6YWIfDcL98dtE6-88">
          <mxGeometry x="0.8809" relative="1" as="geometry">
            <mxPoint as="offset" />
          </mxGeometry>
        </mxCell>
        <mxCell id="ZsvnVr6YWIfDcL98dtE6-84" value="Relationship" style="shape=rhombus;perimeter=rhombusPerimeter;whiteSpace=wrap;html=1;align=center;" vertex="1" parent="1">
          <mxGeometry x="390" y="600" width="70" height="40" as="geometry" />
        </mxCell>
        <mxCell id="ZsvnVr6YWIfDcL98dtE6-92" style="edgeStyle=orthogonalEdgeStyle;rounded=0;orthogonalLoop=1;jettySize=auto;html=1;entryX=1;entryY=0.5;entryDx=0;entryDy=0;" edge="1" parent="1" source="ZsvnVr6YWIfDcL98dtE6-90" target="ZsvnVr6YWIfDcL98dtE6-27">
          <mxGeometry relative="1" as="geometry" />
        </mxCell>
        <mxCell id="ZsvnVr6YWIfDcL98dtE6-94" value="М" style="edgeLabel;html=1;align=center;verticalAlign=middle;resizable=0;points=[];" vertex="1" connectable="0" parent="ZsvnVr6YWIfDcL98dtE6-92">
          <mxGeometry x="0.6341" y="1" relative="1" as="geometry">
            <mxPoint as="offset" />
          </mxGeometry>
        </mxCell>
        <mxCell id="ZsvnVr6YWIfDcL98dtE6-90" value="Relationship" style="shape=rhombus;perimeter=rhombusPerimeter;whiteSpace=wrap;html=1;align=center;" vertex="1" parent="1">
          <mxGeometry x="210" y="675" width="70" height="40" as="geometry" />
        </mxCell>
        <mxCell id="ZsvnVr6YWIfDcL98dtE6-97" style="edgeStyle=orthogonalEdgeStyle;rounded=0;orthogonalLoop=1;jettySize=auto;html=1;entryX=0.5;entryY=0;entryDx=0;entryDy=0;" edge="1" parent="1" source="ZsvnVr6YWIfDcL98dtE6-95" target="ZsvnVr6YWIfDcL98dtE6-33">
          <mxGeometry relative="1" as="geometry">
            <Array as="points">
              <mxPoint x="480" y="580" />
              <mxPoint x="600" y="580" />
            </Array>
          </mxGeometry>
        </mxCell>
        <mxCell id="ZsvnVr6YWIfDcL98dtE6-100" value="1" style="edgeLabel;html=1;align=center;verticalAlign=middle;resizable=0;points=[];" vertex="1" connectable="0" parent="ZsvnVr6YWIfDcL98dtE6-97">
          <mxGeometry x="0.9175" relative="1" as="geometry">
            <mxPoint as="offset" />
          </mxGeometry>
        </mxCell>
        <mxCell id="ZsvnVr6YWIfDcL98dtE6-95" value="Relationship" style="shape=rhombus;perimeter=rhombusPerimeter;whiteSpace=wrap;html=1;align=center;" vertex="1" parent="1">
          <mxGeometry x="480" y="280" width="70" height="40" as="geometry" />
        </mxCell>
        <mxCell id="ZsvnVr6YWIfDcL98dtE6-103" style="edgeStyle=orthogonalEdgeStyle;rounded=0;orthogonalLoop=1;jettySize=auto;html=1;entryX=0.5;entryY=0;entryDx=0;entryDy=0;" edge="1" parent="1" source="ZsvnVr6YWIfDcL98dtE6-101" target="ZsvnVr6YWIfDcL98dtE6-27">
          <mxGeometry relative="1" as="geometry">
            <Array as="points">
              <mxPoint x="315" y="750" />
              <mxPoint x="230" y="750" />
            </Array>
          </mxGeometry>
        </mxCell>
        <mxCell id="ZsvnVr6YWIfDcL98dtE6-105" value="М" style="edgeLabel;html=1;align=center;verticalAlign=middle;resizable=0;points=[];" vertex="1" connectable="0" parent="ZsvnVr6YWIfDcL98dtE6-103">
          <mxGeometry x="0.9265" relative="1" as="geometry">
            <mxPoint as="offset" />
          </mxGeometry>
        </mxCell>
        <mxCell id="ZsvnVr6YWIfDcL98dtE6-101" value="Relationship" style="shape=rhombus;perimeter=rhombusPerimeter;whiteSpace=wrap;html=1;align=center;" vertex="1" parent="1">
          <mxGeometry x="280" y="280" width="70" height="40" as="geometry" />
        </mxCell>
      </root>
    </mxGraphModel>
  </diagram>
</mxfile>
